# 3ds Max Wavefront OBJ Exporter v0.97b - (c)2007 guruware
# File Created: 04.05.2018 09:51:35

mtllib tree3.mtl

#
# object pine_tree_1_var_1
#

v  1.7614 22.4387 0.1839
v  1.1753 27.3462 1.1171
v  1.2493 27.3490 1.3312
v  2.4144 22.4589 1.6561
v  1.1522 27.3562 1.5284
v  1.9842 22.5280 3.0305
v  0.9403 27.3641 1.5932
v  0.6312 22.6112 3.4766
v  0.7414 27.3675 1.4870
v  -0.7688 22.6599 2.7486
v  0.6719 27.3641 1.2721
v  -1.3863 22.6138 1.2568
v  0.7692 27.3562 1.0748
v  -0.9268 22.5286 -0.1227
v  0.9764 27.3490 1.0109
v  0.3803 22.4686 -0.5382
v  1.0421 1.3572 -1.0867
v  1.3964 1.4721 0.0020
v  1.4718 -0.6877 0.1783
v  1.1128 -0.8057 -0.9348
v  -0.0226 6.9245 -4.3106
v  0.2523 5.9353 -5.7885
v  4.2291 5.8712 -3.4773
v  2.5096 6.8918 -2.6492
v  -0.4896 12.9920 -3.8365
v  0.0201 10.9230 -5.3428
v  2.6455 10.7818 -3.7169
v  0.9921 12.8485 -2.9556
v  -0.3212 18.7159 -1.1848
v  -0.2478 16.8206 -3.5383
v  1.5994 16.6150 -2.4574
v  0.8091 18.6215 -0.6977
v  1.0948 23.2207 0.7344
v  1.6700 23.2133 1.0333
v  -2.1301 7.0555 -3.6817
v  -3.6860 6.0021 -4.9310
v  -1.9989 13.2632 -2.9742
v  -2.5558 11.0760 -4.3682
v  -1.4376 18.8418 -0.5437
v  -2.1209 17.0492 -2.4603
v  0.5189 23.2377 0.9224
v  -3.2209 7.1834 -0.2083
v  -4.9675 6.1678 -0.1395
v  -2.8685 13.5316 -0.2531
v  -4.1079 11.2371 -0.3528
v  -2.0173 18.9595 0.9105
v  -3.4520 17.3250 0.5727
v  0.2680 23.2588 1.4922
v  -3.5227 6.7300 2.1229
v  -4.6272 5.8042 3.5414
v  -2.8695 13.4130 1.7967
v  -4.0863 10.8473 2.7385
v  -1.5745 18.9947 2.2235
v  -2.9048 17.3930 2.9306
v  0.4885 23.2698 2.1137
v  -1.6175 6.4470 2.7724
v  -1.7357 5.3823 4.6999
v  -1.3240 13.1581 1.9254
v  -1.7083 10.4556 3.4540
v  -0.3969 18.9310 2.7573
v  -0.9529 17.1714 3.6825
v  1.0659 23.2587 2.4194
v  2.5852 7.2418 1.9124
v  3.4461 6.0891 3.4737
v  1.5574 13.2410 0.7909
v  3.4541 11.2362 2.6413
v  0.9119 18.8133 2.1121
v  2.4215 17.0758 2.5814
v  1.5079 22.8438 2.0512
v  3.7935 7.4797 0.1465
v  5.4135 6.4268 0.4642
v  2.3465 13.2427 -0.8993
v  4.7549 11.3128 0.0492
v  1.4388 18.6606 0.6075
v  3.4271 16.9154 0.1027
v  1.9082 22.8486 1.6525
v  1.6453 20.9064 -0.1872
v  2.4392 20.7742 1.1106
v  1.8273 20.8272 2.2366
v  0.3601 21.1305 2.8610
v  -0.6979 21.2151 2.3993
v  -1.0326 21.1842 1.1707
v  -0.4040 21.0741 -0.2603
v  0.6254 20.9831 -0.7595
v  4.4575 1.2567 -3.4022
v  5.6921 1.5368 0.5362
v  3.5560 1.5709 4.0632
v  -1.2664 1.0741 5.0482
v  -4.3153 1.3325 3.7675
v  -5.0505 1.4645 0.0008
v  -3.6214 1.2938 -4.5480
v  0.5364 1.2774 -5.6136
v  0.7917 1.4819 0.9606
v  -0.3620 1.3985 1.3390
v  -1.2315 1.3790 0.9871
v  -1.4967 1.3692 -0.0849
v  -1.0926 1.3131 -1.2761
v  -0.0247 1.2998 -1.6598
v  0.9071 -0.6519 1.1619
v  -0.2082 -0.7188 1.5046
v  -1.1206 -0.7679 1.0870
v  -1.4462 -0.8179 -0.0156
v  -1.0114 -0.8728 -1.1634
v  0.0627 -0.8722 -1.5224
# 104 vertices

vn 0.8362 0.4112 -0.3629
vn 0.8140 0.5180 0.2627
vn 0.2517 0.6435 0.7229
vn -0.3336 0.6758 0.6572
vn -0.6738 0.6906 0.2628
vn -0.6666 0.7012 -0.2527
vn 0.0120 0.9999 -0.0101
vn -0.2239 0.6296 -0.7439
vn 0.4127 0.4716 -0.7793
vn 0.9509 0.0207 -0.3089
vn -0.1442 -0.9633 0.2264
vn -0.2727 -0.8725 0.4054
vn -0.2087 -0.9233 0.3225
vn -0.1805 -0.9260 0.3316
vn 0.0545 -0.9599 0.2751
vn 0.1934 -0.8376 0.5109
vn 0.1370 -0.9377 0.3192
vn 0.0507 -0.9763 0.2102
vn 0.2260 -0.9709 0.0793
vn 0.6006 -0.7638 0.2363
vn 0.3937 -0.8971 0.2005
vn 0.1485 -0.9859 0.0766
vn 0.2461 -0.9676 -0.0566
vn 0.6301 -0.7757 -0.0346
vn 0.4260 -0.8987 -0.1043
vn 0.1696 -0.9839 -0.0561
vn 0.0276 -0.9724 -0.2318
vn 0.0831 -0.7699 -0.6328
vn 0.1795 -0.8384 -0.5147
vn 0.0958 -0.9737 -0.2068
vn 0.0072 -0.9660 -0.2583
vn -0.0760 -0.8760 -0.4764
vn -0.2444 -0.7478 -0.6172
vn -0.1963 -0.9626 -0.1865
vn -0.2127 -0.9585 -0.1898
vn -0.2726 -0.9518 -0.1403
vn -0.3828 -0.9164 -0.1172
vn -0.2093 -0.9743 -0.0833
vn -0.2267 -0.9621 0.1514
vn -0.3762 -0.8825 0.2824
vn -0.3226 -0.9159 0.2388
vn -0.4891 -0.8594 0.1492
vn 0.7605 0.5469 -0.3502
vn 0.7996 0.2876 0.5271
vn 0.4766 0.2031 0.8553
vn -0.3155 0.6345 0.7055
vn -0.5644 0.8095 0.1617
vn -0.4993 0.8319 -0.2423
vn -0.1855 0.8520 -0.4895
vn 0.3336 0.7426 -0.5807
vn 0.6125 0.7018 -0.3638
vn 0.6951 0.6510 0.3051
vn 0.2061 0.2122 0.9552
vn -0.2986 0.3209 0.8988
vn -0.8227 0.5586 0.1056
vn -0.7392 0.6025 -0.3010
vn -0.2383 0.7640 -0.5996
vn 0.3424 0.7440 -0.5738
vn 0.6617 0.6757 -0.3249
vn 0.5742 0.7358 0.3590
vn 0.1828 0.6712 0.7184
vn -0.1858 0.6059 0.7735
vn -0.8402 0.5379 0.0687
vn -0.7914 0.5622 -0.2402
vn -0.2368 0.5570 -0.7960
vn 0.4185 0.5787 -0.6999
vn 0.7338 0.6059 -0.3071
vn 0.6620 0.6151 0.4282
vn 0.1017 0.7034 0.7035
vn -0.2501 0.6495 0.7181
vn -0.8539 0.5140 0.0813
vn -0.7790 0.5735 -0.2536
vn -0.2305 0.4397 -0.8681
vn 0.4333 0.5435 -0.7189
vn 0.0053 -0.9995 0.0312
vn 0.0053 -1.0000 0.0073
vn 0.0351 -0.9991 -0.0240
vn -0.0124 -0.9994 -0.0315
vn -0.0070 -0.9999 -0.0091
vn -0.0119 -0.9998 0.0127
vn -0.0016 -1.0000 0.0028
vn -0.0011 -1.0000 0.0075
vn 0.0165 -0.9996 0.0247
vn 0.4803 -0.0972 -0.8717
vn -0.9371 -0.1007 -0.3341
vn -0.3963 0.0774 0.9148
vn 0.8410 0.1955 0.5044
vn -0.3238 -0.1580 -0.9328
vn -0.9630 -0.0613 0.2624
vn 0.2885 0.2352 0.9282
vn 0.3633 0.7308 -0.5779
vn -0.2180 0.8534 -0.4735
vn -0.4959 0.8323 -0.2478
vn -0.5668 0.8135 0.1300
vn -0.2748 0.6071 0.7456
vn 0.3324 0.2544 0.9082
vn 0.8584 0.3482 0.3766
vn 0.6480 0.6133 -0.4515
# 98 vertex normals

vt 0.6563 0.6563 0.0000
vt 0.6613 0.6504 0.0000
vt 0.6618 0.6511 0.0000
vt 0.6594 0.6611 0.0000
vt 0.6622 0.6513 0.0000
vt 0.6622 0.6633 0.0000
vt 0.7064 0.5907 0.0000
vt 0.7064 0.6029 0.0000
vt 0.7059 0.6031 0.0000
vt 0.7028 0.5917 0.0000
vt 0.7055 0.6036 0.0000
vt 0.6999 0.5956 0.0000
vt 0.6922 0.5734 0.0000
vt 0.6943 0.5648 0.0000
vt 0.6949 0.5648 0.0000
vt 0.6964 0.5734 0.0000
vt 0.7056 0.5761 0.0000
vt 0.7054 0.5885 0.0000
vt 0.7049 0.5886 0.0000
vt 0.7025 0.5760 0.0000
vt 0.7047 0.5907 0.0000
vt 0.7044 0.5902 0.0000
vt 0.7045 0.5893 0.0000
vt 0.7056 0.5890 0.0000
vt 0.7056 0.5899 0.0000
vt 0.7052 0.5906 0.0000
vt 0.6999 0.5804 0.0000
vt 0.6546 0.6515 0.0000
vt 0.6611 0.6497 0.0000
vt 0.3613 0.8338 0.0000
vt 0.3622 0.8126 0.0000
vt 0.3765 0.8094 0.0000
vt 0.3757 0.8310 0.0000
vt 0.6755 0.5582 0.0000
vt 0.6784 0.5610 0.0000
vt 0.6710 0.5765 0.0000
vt 0.6703 0.5679 0.0000
vt 0.6708 0.6119 0.0000
vt 0.6704 0.6178 0.0000
vt 0.6628 0.6162 0.0000
vt 0.6665 0.6111 0.0000
vt 0.6862 0.6338 0.0000
vt 0.6879 0.6422 0.0000
vt 0.6825 0.6418 0.0000
vt 0.6831 0.6343 0.0000
vt 0.6802 0.5649 0.0000
vt 0.6784 0.5697 0.0000
vt 0.6785 0.5628 0.0000
vt 0.6802 0.5621 0.0000
vt 0.6751 0.5481 0.0000
vt 0.6784 0.5425 0.0000
vt 0.6736 0.6057 0.0000
vt 0.6756 0.6091 0.0000
vt 0.6881 0.6291 0.0000
vt 0.6911 0.6342 0.0000
vt 0.6813 0.5670 0.0000
vt 0.6809 0.5744 0.0000
vt 0.6676 0.5397 0.0000
vt 0.6679 0.5318 0.0000
vt 0.6732 0.5934 0.0000
vt 0.6756 0.5902 0.0000
vt 0.6880 0.6222 0.0000
vt 0.6911 0.6197 0.0000
vt 0.6828 0.5670 0.0000
vt 0.6844 0.5738 0.0000
vt 0.6621 0.5360 0.0000
vt 0.6589 0.5296 0.0000
vt 0.6713 0.5851 0.0000
vt 0.6726 0.5777 0.0000
vt 0.6856 0.6180 0.0000
vt 0.6875 0.6117 0.0000
vt 0.6839 0.5650 0.0000
vt 0.6870 0.5687 0.0000
vt 0.6595 0.5438 0.0000
vt 0.6546 0.5414 0.0000
vt 0.6675 0.5874 0.0000
vt 0.6663 0.5792 0.0000
vt 0.6824 0.6184 0.0000
vt 0.6822 0.6127 0.0000
vt 0.6840 0.5621 0.0000
vt 0.6870 0.5617 0.0000
vt 0.6597 0.5635 0.0000
vt 0.6551 0.5658 0.0000
vt 0.6619 0.5975 0.0000
vt 0.6552 0.5926 0.0000
vt 0.6800 0.6236 0.0000
vt 0.6756 0.6241 0.0000
vt 0.6827 0.5607 0.0000
vt 0.6844 0.5569 0.0000
vt 0.6633 0.5707 0.0000
vt 0.6613 0.5777 0.0000
vt 0.6616 0.6057 0.0000
vt 0.6546 0.6055 0.0000
vt 0.6803 0.6305 0.0000
vt 0.6758 0.6358 0.0000
vt 0.6814 0.5598 0.0000
vt 0.6809 0.5575 0.0000
vt 0.6772 0.6526 0.0000
vt 0.6756 0.6460 0.0000
vt 0.6765 0.6434 0.0000
vt 0.6788 0.6463 0.0000
vt 0.6451 0.6518 0.0000
vt 0.6439 0.6493 0.0000
vt 0.6443 0.6471 0.0000
vt 0.6465 0.6481 0.0000
vt 0.6443 0.6449 0.0000
vt 0.6465 0.6410 0.0000
vt 0.6436 0.6426 0.0000
vt 0.6452 0.6367 0.0000
vt 0.6854 0.5314 0.0000
vt 0.6888 0.5296 0.0000
vt 0.6885 0.5317 0.0000
vt 0.6850 0.5355 0.0000
vt 0.6894 0.5336 0.0000
vt 0.6871 0.5404 0.0000
vt 0.6909 0.5343 0.0000
vt 0.6899 0.5422 0.0000
vt 0.6922 0.5333 0.0000
vt 0.6922 0.5404 0.0000
vt 0.6320 0.6256 0.0000
vt 0.6415 0.6379 0.0000
vt 0.6409 0.6445 0.0000
vt 0.6304 0.6451 0.0000
vt 0.6415 0.6502 0.0000
vt 0.6314 0.6543 0.0000
vt 0.6752 0.6520 0.0000
vt 0.6669 0.6417 0.0000
vt 0.6673 0.6353 0.0000
vt 0.6752 0.6280 0.0000
vt 0.6660 0.6304 0.0000
vt 0.6728 0.6178 0.0000
vt 0.6988 0.6462 0.0000
vt 0.6988 0.6612 0.0000
vt 0.6953 0.6608 0.0000
vt 0.6911 0.6461 0.0000
vt 0.6897 0.6063 0.0000
vt 0.6799 0.6117 0.0000
vt 0.6799 0.6055 0.0000
vt 0.6897 0.5897 0.0000
vt 0.6782 0.6005 0.0000
vt 0.6853 0.5797 0.0000
vt 0.6756 0.5989 0.0000
vt 0.6788 0.5777 0.0000
vt 0.6897 0.5931 0.0000
vt 0.6993 0.5879 0.0000
vt 0.6999 0.5989 0.0000
vt 0.6917 0.6117 0.0000
vt 0.6336 0.5778 0.0000
vt 0.6436 0.5875 0.0000
vt 0.6417 0.5929 0.0000
vt 0.6304 0.5900 0.0000
vt 0.6420 0.6069 0.0000
vt 0.6318 0.6144 0.0000
vt 0.6436 0.6135 0.0000
vt 0.6359 0.6256 0.0000
vt 0.6908 0.6590 0.0000
vt 0.6831 0.6529 0.0000
vt 0.6832 0.6438 0.0000
vt 0.6908 0.6422 0.0000
vt 0.6644 0.6497 0.0000
vt 0.6559 0.6497 0.0000
vt 0.6566 0.6388 0.0000
vt 0.6660 0.6315 0.0000
vt 0.6546 0.6318 0.0000
vt 0.6591 0.6178 0.0000
vt 0.6911 0.5760 0.0000
vt 0.6999 0.5814 0.0000
vt 0.6922 0.5460 0.0000
vt 0.6998 0.5449 0.0000
vt 0.7008 0.5590 0.0000
vt 0.6936 0.5648 0.0000
vt 0.6478 0.5778 0.0000
vt 0.6544 0.5849 0.0000
vt 0.6521 0.5920 0.0000
vt 0.6436 0.5906 0.0000
vt 0.6522 0.6118 0.0000
vt 0.6440 0.6132 0.0000
vt 0.6544 0.6197 0.0000
vt 0.6477 0.6257 0.0000
vt 0.7047 0.6637 0.0000
vt 0.6991 0.6572 0.0000
vt 0.6988 0.6472 0.0000
vt 0.7047 0.6461 0.0000
vt 0.6944 0.6117 0.0000
vt 0.7010 0.6152 0.0000
vt 0.6985 0.6282 0.0000
vt 0.6911 0.6288 0.0000
vt 0.7010 0.6373 0.0000
vt 0.6964 0.6461 0.0000
vt 0.6940 0.5296 0.0000
vt 0.7008 0.5333 0.0000
vt 0.6439 0.5483 0.0000
vt 0.6412 0.5487 0.0000
vt 0.6376 0.5310 0.0000
vt 0.6474 0.5296 0.0000
vt 0.6459 0.5520 0.0000
vt 0.6546 0.5429 0.0000
vt 0.6462 0.5575 0.0000
vt 0.6546 0.5655 0.0000
vt 0.6449 0.5611 0.0000
vt 0.6499 0.5778 0.0000
vt 0.6423 0.5611 0.0000
vt 0.6406 0.5771 0.0000
vt 0.6397 0.5580 0.0000
vt 0.6307 0.5659 0.0000
vt 0.6394 0.5529 0.0000
vt 0.6304 0.5462 0.0000
vt 0.6457 0.6519 0.0000
vt 0.6484 0.6518 0.0000
vt 0.6502 0.6557 0.0000
vt 0.6502 0.6611 0.0000
vt 0.6486 0.6645 0.0000
vt 0.6459 0.6644 0.0000
vt 0.6436 0.6608 0.0000
vt 0.6436 0.6556 0.0000
vt 0.3612 0.8647 0.0000
vt 0.3756 0.8617 0.0000
vt 0.3765 0.8414 0.0000
vt 0.3770 0.8094 0.0000
vt 0.3915 0.8116 0.0000
vt 0.3909 0.8429 0.0000
vt 0.3916 0.8858 0.0000
vt 0.3915 0.8619 0.0000
vt 0.4056 0.8650 0.0000
vt 0.4056 0.8906 0.0000
vt 0.4069 0.8094 0.0000
vt 0.4059 0.8382 0.0000
vt 0.3915 0.8396 0.0000
vt 0.3924 0.8107 0.0000
vt 0.3621 0.8838 0.0000
vt 0.3765 0.8813 0.0000
vt 0.3773 0.8649 0.0000
vt 0.3915 0.8666 0.0000
vt 0.4069 0.8617 0.0000
vt 0.3926 0.8619 0.0000
vt 0.6880 0.5569 0.0000
vt 0.6922 0.5537 0.0000
vt 0.6829 0.5530 0.0000
vt 0.6789 0.5347 0.0000
vt 0.6505 0.6337 0.0000
vt 0.6482 0.6257 0.0000
vt 0.6505 0.6499 0.0000
vt 0.6831 0.6518 0.0000
vt 0.6787 0.6422 0.0000
vt 0.6831 0.6424 0.0000
vt 0.6801 0.6648 0.0000
# 246 texture coords

g pine_tree_1_var_1
usemtl wire_087224198
f 1/1/1 2/2/1 3/3/1 
f 3/3/1 4/4/1 1/1/1 
f 4/4/2 3/3/2 5/5/2 
f 5/5/2 6/6/2 4/4/2 
f 6/7/3 5/8/3 7/9/3 
f 7/9/3 8/10/3 6/7/3 
f 8/10/4 7/9/4 9/11/4 
f 9/11/4 10/12/4 8/10/4 
f 10/13/5 9/14/5 11/15/5 
f 11/15/5 12/16/5 10/13/5 
f 12/17/6 11/18/6 13/19/6 
f 13/19/6 14/20/6 12/17/6 
f 3/21/7 2/22/7 15/23/7 
f 3/21/7 15/23/7 13/19/7 
f 3/21/7 13/19/7 11/18/7 
f 3/21/7 11/18/7 9/24/7 
f 3/21/7 9/24/7 7/25/7 
f 3/21/7 7/25/7 5/26/7 
f 14/20/8 13/19/8 15/23/8 
f 15/23/8 16/27/8 14/20/8 
f 16/28/9 15/29/9 2/2/9 
f 2/2/9 1/1/9 16/28/9 
f 17/30/10 18/31/10 19/32/10 
f 19/32/10 20/33/10 17/30/10 
f 21/34/11 22/35/11 23/36/11 
f 23/36/11 24/37/11 21/34/11 
f 25/38/12 26/39/12 27/40/12 
f 27/40/12 28/41/12 25/38/12 
f 29/42/13 30/43/13 31/44/13 
f 31/44/13 32/45/13 29/42/13 
f 33/46/14 16/47/14 1/48/14 
f 1/48/14 34/49/14 33/46/14 
f 35/50/15 36/51/15 22/35/15 
f 22/35/15 21/34/15 35/50/15 
f 37/52/16 38/53/16 26/39/16 
f 26/39/16 25/38/16 37/52/16 
f 39/54/17 40/55/17 30/43/17 
f 30/43/17 29/42/17 39/54/17 
f 41/56/18 14/57/18 16/47/18 
f 16/47/18 33/46/18 41/56/18 
f 42/58/19 43/59/19 36/51/19 
f 36/51/19 35/50/19 42/58/19 
f 44/60/20 45/61/20 38/53/20 
f 38/53/20 37/52/20 44/60/20 
f 46/62/21 47/63/21 40/55/21 
f 40/55/21 39/54/21 46/62/21 
f 48/64/22 12/65/22 14/57/22 
f 14/57/22 41/56/22 48/64/22 
f 49/66/23 50/67/23 43/59/23 
f 43/59/23 42/58/23 49/66/23 
f 51/68/24 52/69/24 45/61/24 
f 45/61/24 44/60/24 51/68/24 
f 53/70/25 54/71/25 47/63/25 
f 47/63/25 46/62/25 53/70/25 
f 55/72/26 10/73/26 12/65/26 
f 12/65/26 48/64/26 55/72/26 
f 56/74/27 57/75/27 50/67/27 
f 50/67/27 49/66/27 56/74/27 
f 58/76/28 59/77/28 52/69/28 
f 52/69/28 51/68/28 58/76/28 
f 60/78/29 61/79/29 54/71/29 
f 54/71/29 53/70/29 60/78/29 
f 62/80/30 8/81/30 10/73/30 
f 10/73/30 55/72/30 62/80/30 
f 63/82/31 64/83/31 57/75/31 
f 57/75/31 56/74/31 63/82/31 
f 65/84/32 66/85/32 59/77/32 
f 59/77/32 58/76/32 65/84/32 
f 67/86/33 68/87/33 61/79/33 
f 61/79/33 60/78/33 67/86/33 
f 69/88/34 6/89/34 8/81/34 
f 8/81/34 62/80/34 69/88/34 
f 70/90/35 71/91/35 64/83/35 
f 64/83/35 63/82/35 70/90/35 
f 72/92/36 73/93/36 66/85/36 
f 66/85/36 65/84/36 72/92/36 
f 74/94/37 75/95/37 68/87/37 
f 68/87/37 67/86/37 74/94/37 
f 76/96/38 4/97/38 6/89/38 
f 6/89/38 69/88/38 76/96/38 
f 24/37/39 23/36/39 71/91/39 
f 71/91/39 70/90/39 24/37/39 
f 28/41/40 27/40/40 73/93/40 
f 73/93/40 72/92/40 28/41/40 
f 32/45/41 31/44/41 75/95/41 
f 75/95/41 74/94/41 32/45/41 
f 34/49/42 1/48/42 4/97/42 
f 4/97/42 76/96/42 34/49/42 
f 77/98/43 34/99/43 76/100/43 
f 76/100/43 78/101/43 77/98/43 
f 78/102/44 76/103/44 69/104/44 
f 69/104/44 79/105/44 78/102/44 
f 79/105/45 69/104/45 62/106/45 
f 62/106/45 80/107/45 79/105/45 
f 80/107/46 62/106/46 55/108/46 
f 55/108/46 81/109/46 80/107/46 
f 81/110/47 55/111/47 48/112/47 
f 48/112/47 82/113/47 81/110/47 
f 82/113/48 48/112/48 41/114/48 
f 41/114/48 83/115/48 82/113/48 
f 83/115/49 41/114/49 33/116/49 
f 33/116/49 84/117/49 83/115/49 
f 84/117/50 33/116/50 34/118/50 
f 34/118/50 77/119/50 84/117/50 
f 27/120/51 32/121/51 74/122/51 
f 74/122/51 73/123/51 27/120/51 
f 73/123/52 74/122/52 67/124/52 
f 67/124/52 66/125/52 73/123/52 
f 66/126/53 67/127/53 60/128/53 
f 60/128/53 59/129/53 66/126/53 
f 59/129/54 60/128/54 53/130/54 
f 53/130/54 52/131/54 59/129/54 
f 52/132/55 53/133/55 46/134/55 
f 46/134/55 45/135/55 52/132/55 
f 45/136/56 46/137/56 39/138/56 
f 39/138/56 38/139/56 45/136/56 
f 38/139/57 39/138/57 29/140/57 
f 29/140/57 26/141/57 38/139/57 
f 26/141/58 29/140/58 32/142/58 
f 32/142/58 27/143/58 26/141/58 
f 23/144/59 28/145/59 72/146/59 
f 72/146/59 71/147/59 23/144/59 
f 71/148/60 72/149/60 65/150/60 
f 65/150/60 64/151/60 71/148/60 
f 64/151/61 65/150/61 58/152/61 
f 58/152/61 57/153/61 64/151/61 
f 57/153/62 58/152/62 51/154/62 
f 51/154/62 50/155/62 57/153/62 
f 50/156/63 51/157/63 44/158/63 
f 44/158/63 43/159/63 50/156/63 
f 43/160/64 44/161/64 37/162/64 
f 37/162/64 36/163/64 43/160/64 
f 36/163/65 37/162/65 25/164/65 
f 25/164/65 22/165/65 36/163/65 
f 22/166/66 25/167/66 28/145/66 
f 28/145/66 23/144/66 22/166/66 
f 85/168/67 24/169/67 70/170/67 
f 70/170/67 86/171/67 85/168/67 
f 86/172/68 70/173/68 63/174/68 
f 63/174/68 87/175/68 86/172/68 
f 87/175/69 63/174/69 56/176/69 
f 56/176/69 88/177/69 87/175/69 
f 88/177/70 56/176/70 49/178/70 
f 49/178/70 89/179/70 88/177/70 
f 89/180/71 49/181/71 42/182/71 
f 42/182/71 90/183/71 89/180/71 
f 90/184/72 42/185/72 35/186/72 
f 35/186/72 91/187/72 90/184/72 
f 91/187/73 35/186/73 21/188/73 
f 21/188/73 92/189/73 91/187/73 
f 92/190/74 21/191/74 24/169/74 
f 24/169/74 85/168/74 92/190/74 
f 18/192/75 17/193/75 85/194/75 
f 85/194/75 86/195/75 18/192/75 
f 93/196/76 18/192/76 86/195/76 
f 86/195/76 87/197/76 93/196/76 
f 94/198/77 93/196/77 87/197/77 
f 87/197/77 88/199/77 94/198/77 
f 95/200/78 94/198/78 88/199/78 
f 88/199/78 89/201/78 95/200/78 
f 96/202/79 95/200/79 89/201/79 
f 89/201/79 90/203/79 96/202/79 
f 97/204/80 96/202/80 90/203/80 
f 90/203/80 91/205/80 97/204/80 
f 98/206/81 97/204/81 91/205/81 
f 91/205/81 92/207/81 98/206/81 
f 17/193/82 98/206/82 92/207/82 
f 92/207/82 85/194/82 17/193/82 
f 20/208/83 19/209/83 99/210/83 
f 20/208/83 99/210/83 100/211/83 
f 20/208/83 100/211/83 101/212/83 
f 20/208/83 101/212/83 102/213/83 
f 20/208/83 102/213/83 103/214/83 
f 20/208/83 103/214/83 104/215/83 
f 98/216/84 17/30/84 20/33/84 
f 20/33/84 104/217/84 98/216/84 
f 96/218/85 97/219/85 103/220/85 
f 103/220/85 102/221/85 96/218/85 
f 94/222/86 95/223/86 101/224/86 
f 101/224/86 100/225/86 94/222/86 
f 18/226/87 93/227/87 99/228/87 
f 99/228/87 19/229/87 18/226/87 
f 97/230/88 98/216/88 104/217/88 
f 104/217/88 103/231/88 97/230/88 
f 95/232/89 96/218/89 102/221/89 
f 102/221/89 101/233/89 95/232/89 
f 93/227/90 94/234/90 100/235/90 
f 100/235/90 99/228/90 93/227/90 
f 30/236/91 84/117/91 77/119/91 
f 77/119/91 31/237/91 30/236/91 
f 40/238/92 83/115/92 84/117/92 
f 84/117/92 30/236/92 40/238/92 
f 47/51/93 82/113/93 83/115/93 
f 83/115/93 40/238/93 47/51/93 
f 54/239/94 81/110/94 82/113/94 
f 82/113/94 47/51/94 54/239/94 
f 61/240/95 80/107/95 81/109/95 
f 81/109/95 54/241/95 61/240/95 
f 68/242/96 79/105/96 80/107/96 
f 80/107/96 61/240/96 68/242/96 
f 75/243/97 78/101/97 79/244/97 
f 79/244/97 68/245/97 75/243/97 
f 31/246/98 77/98/98 78/101/98 
f 78/101/98 75/243/98 31/246/98 
# 204 faces

