# 3ds Max Wavefront OBJ Exporter v0.97b - (c)2007 guruware
# File Created: 04.05.2018 09:56:25

mtllib tree4.mtl

#
# object tree_2_
#

v  -0.1313 -1.0603 -0.6441
v  -0.1313 12.2667 -0.5783
v  0.2637 12.2892 -0.1831
v  0.4848 12.8372 0.0406
v  0.5534 -1.0603 0.0406
v  0.4707 15.6828 0.0406
v  -0.1313 15.6828 0.6427
v  -0.1313 12.9025 0.6564
v  -0.1313 11.9294 0.6612
v  -0.1313 11.6389 0.6642
v  -0.1313 10.7750 0.6669
v  -0.1313 -1.0603 0.7254
v  -0.1313 15.6828 -0.5614
v  -0.7334 15.6828 0.0406
v  -0.7471 13.2159 0.0406
v  -0.1313 13.0052 -0.5746
v  -0.8161 -1.0603 0.0406
v  2.8311 15.0622 -1.3374
v  2.9278 15.0731 -1.2219
v  2.7343 15.2183 -1.2596
v  2.9118 15.1923 -1.1009
v  -0.7583 10.6277 0.0406
v  -0.7519 11.9294 0.0406
v  -2.9291 15.8018 2.8139
v  -3.1849 15.7581 2.6165
v  -2.7989 15.9905 2.6927
v  -0.7562 11.3707 0.0406
v  -3.0826 15.9053 2.5227
v  4.1372 22.2846 -3.0607
v  1.5830 21.8527 -5.2356
v  0.8763 24.0721 -3.0606
v  3.1296 24.0721 0.0406
v  -0.1313 24.8937 0.0406
v  -1.7618 22.2847 -4.9774
v  -4.6196 21.8527 -3.2202
v  -2.7694 24.0721 -1.8760
v  -5.4076 22.2846 0.0406
v  -4.6196 21.8527 3.3015
v  -2.7694 24.0721 1.9573
v  -1.7618 22.2847 5.0586
v  1.5830 21.8527 5.3169
v  0.8763 24.0721 3.1419
v  4.1372 22.2846 3.1419
v  5.4164 21.8527 0.0406
v  3.5145 19.3924 -4.9774
v  5.7677 19.3924 -1.8760
v  -3.7771 19.3924 -4.9774
v  -0.1313 19.3924 -6.1620
v  -6.0304 19.3924 1.9573
v  -6.0304 19.3924 -1.8760
v  -0.1313 19.3924 6.2432
v  -3.7771 19.3924 5.0587
v  5.7677 19.3924 1.9573
v  3.5145 19.3924 5.0587
v  1.4991 16.5002 -4.9773
v  -1.8457 16.9322 -5.2356
v  -4.3999 16.5002 -3.0607
v  -5.6791 16.9322 0.0406
v  -4.3999 16.5002 3.1419
v  -1.8457 16.9322 5.3169
v  1.4991 16.5002 5.0586
v  4.3569 16.9322 3.3015
v  5.1449 16.5002 0.0406
v  4.3569 16.9322 -3.2202
v  -1.1390 14.7128 -3.0606
v  2.5068 14.7128 -1.8760
v  -3.3922 14.7128 0.0406
v  -1.1390 14.7128 3.1419
v  2.5068 14.7128 1.9573
v  -0.1313 13.8912 0.0406
v  -1.2074 15.3543 -2.1825
v  -1.3133 15.3894 -2.0958
v  -1.4075 15.2070 -2.2769
v  -1.2609 15.2496 -2.2868
# 74 vertices

vn 0.7071 0.0035 -0.7071
vn 0.7071 0.0035 0.7071
vn 0.0000 1.0000 -0.0000
vn -0.7066 0.0037 0.7076
vn -0.7066 0.0037 -0.7076
vn 0.0000 -1.0000 -0.0000
vn 0.5391 -0.6963 -0.4738
vn -0.2854 0.0562 -0.9568
vn 0.7083 -0.4834 0.5144
vn -0.4023 0.7014 0.5884
vn 0.5709 0.6212 -0.5369
vn -0.7071 0.0035 0.7071
vn -0.7067 0.0030 0.7075
vn -0.4956 -0.5626 0.6617
vn 0.6231 0.0150 0.7820
vn -0.7182 0.0110 -0.6958
vn -0.7074 0.0061 0.7068
vn 0.3944 0.5824 -0.7108
vn 0.3866 0.7053 -0.5941
vn 0.4538 0.8279 -0.3297
vn 0.2406 0.9548 -0.1748
vn -0.4456 0.7053 -0.5513
vn -0.1733 0.8279 -0.5335
vn -0.0919 0.9548 -0.2828
vn -0.6620 0.7053 0.2534
vn -0.5609 0.8279 -0.0000
vn -0.2973 0.9548 -0.0000
vn 0.0364 0.7053 0.7079
vn -0.1733 0.8279 0.5335
vn -0.0919 0.9548 0.2828
vn 0.6845 0.7053 0.1841
vn 0.4538 0.8279 0.3297
vn 0.2406 0.9548 0.1748
vn 0.5663 0.3671 -0.7379
vn 0.7909 0.2105 -0.5746
vn 0.8768 0.3671 -0.3105
vn -0.5268 0.3671 -0.7666
vn -0.3021 0.2105 -0.9297
vn -0.0244 0.3671 -0.9299
vn -0.8919 0.3671 0.2641
vn -0.9776 0.2105 -0.0000
vn -0.8919 0.3671 -0.2641
vn -0.0244 0.3671 0.9299
vn -0.3021 0.2105 0.9297
vn -0.5268 0.3671 0.7666
vn 0.8768 0.3671 0.3105
vn 0.7909 0.2105 0.5746
vn 0.5663 0.3671 0.7379
vn 0.0244 -0.3671 -0.9299
vn 0.3021 -0.2105 -0.9297
vn 0.3059 0.1413 -0.9415
vn -0.8768 -0.3671 -0.3105
vn -0.7909 -0.2105 -0.5746
vn -0.8009 0.1413 -0.5819
vn -0.5663 -0.3671 0.7379
vn -0.7909 -0.2105 0.5746
vn -0.8009 0.1413 0.5819
vn 0.5268 -0.3671 0.7666
vn 0.3021 -0.2105 0.9297
vn 0.3059 0.1413 0.9415
vn 0.8919 -0.3671 -0.2642
vn 0.9776 -0.2105 -0.0000
vn 0.9900 0.1413 -0.0000
vn -0.0364 -0.7053 -0.7079
vn 0.1733 -0.8279 -0.5335
vn 0.4456 -0.7053 -0.5513
vn -0.6845 -0.7053 -0.1841
vn -0.4538 -0.8279 -0.3297
vn -0.3866 -0.7053 -0.5941
vn -0.3866 -0.7053 0.5941
vn -0.4538 -0.8279 0.3297
vn -0.6845 -0.7053 0.1841
vn 0.2973 -0.9548 -0.0000
vn 0.5609 -0.8279 -0.0000
vn 0.6620 -0.7053 -0.2534
vn 0.4456 -0.7053 0.5513
vn 0.1733 -0.8279 0.5335
vn -0.0364 -0.7053 0.7079
vn 0.6845 0.7053 -0.1841
vn 0.0364 0.7053 -0.7079
vn -0.6620 0.7053 -0.2534
vn -0.4456 0.7053 0.5513
vn 0.3866 0.7053 0.5941
vn 0.8009 -0.1413 -0.5819
vn -0.3059 -0.1413 -0.9415
vn -0.9900 -0.1413 -0.0000
vn -0.3059 -0.1413 0.9415
vn 0.8009 -0.1413 0.5819
vn 0.5268 -0.3671 -0.7666
vn -0.5663 -0.3671 -0.7379
vn -0.8768 -0.3671 0.3105
vn 0.0244 -0.3671 0.9299
vn 0.8919 -0.3671 0.2642
vn 0.0919 -0.9548 -0.2828
vn -0.2406 -0.9548 -0.1748
vn -0.2406 -0.9548 0.1748
vn 0.6620 -0.7053 0.2534
vn 0.0919 -0.9548 0.2828
vn -0.5145 0.6857 0.5150
vn -0.7071 0.0035 -0.7071
vn 0.6490 0.6110 0.4533
vn -0.9548 0.0278 0.2960
vn 0.8436 0.0151 -0.5367
vn -0.3289 -0.5754 -0.7489
vn -0.2579 0.7445 -0.6158
# 105 vertex normals

vt 0.7929 0.8649 0.0000
vt 0.7931 0.8333 0.0000
vt 0.7943 0.8331 0.0000
vt 0.7950 0.8318 0.0000
vt 0.7950 0.8647 0.0000
vt 0.7865 0.8725 0.0000
vt 0.7865 0.8809 0.0000
vt 0.7847 0.8809 0.0000
vt 0.7846 0.8727 0.0000
vt 0.7846 0.8699 0.0000
vt 0.7846 0.8690 0.0000
vt 0.7846 0.8665 0.0000
vt 0.7865 0.8318 0.0000
vt 0.7844 0.8318 0.0000
vt 0.7929 0.8427 0.0000
vt 0.7910 0.8428 0.0000
vt 0.7909 0.8410 0.0000
vt 0.7927 0.8409 0.0000
vt 0.7928 0.8349 0.0000
vt 0.7909 0.8357 0.0000
vt 0.7886 0.8598 0.0000
vt 0.7905 0.8605 0.0000
vt 0.7905 0.8678 0.0000
vt 0.7886 0.8678 0.0000
vt 0.7865 0.8683 0.0000
vt 0.7886 0.8683 0.0000
vt 0.7886 0.8712 0.0000
vt 0.7865 0.8712 0.0000
vt 0.7950 0.8562 0.0000
vt 0.7960 0.8554 0.0000
vt 0.7960 0.8645 0.0000
vt 0.7957 0.8647 0.0000
vt 0.7906 0.8712 0.0000
vt 0.7906 0.8648 0.0000
vt 0.7924 0.8646 0.0000
vt 0.7924 0.8714 0.0000
vt 0.7961 0.8436 0.0000
vt 0.7950 0.8421 0.0000
vt 0.7957 0.8318 0.0000
vt 0.7961 0.8318 0.0000
vt 0.7950 0.8449 0.0000
vt 0.7958 0.8436 0.0000
vt 0.7958 0.8553 0.0000
vt 0.7955 0.8554 0.0000
vt 0.7924 0.8541 0.0000
vt 0.7906 0.8534 0.0000
vt 0.7919 0.8429 0.0000
vt 0.7924 0.8432 0.0000
vt 0.7924 0.8436 0.0000
vt 0.7925 0.8429 0.0000
vt 0.7928 0.8432 0.0000
vt 0.7928 0.8436 0.0000
vt 0.7886 0.8429 0.0000
vt 0.7867 0.8682 0.0000
vt 0.7865 0.8431 0.0000
vt 0.7929 0.8329 0.0000
vt 0.7910 0.8330 0.0000
vt 0.7925 0.8646 0.0000
vt 0.7906 0.8646 0.0000
vt 0.7916 0.8543 0.0000
vt 0.7923 0.8541 0.0000
vt 0.7774 0.8816 0.0000
vt 0.7770 0.8810 0.0000
vt 0.7715 0.8685 0.0000
vt 0.7718 0.8663 0.0000
vt 0.7770 0.8834 0.0000
vt 0.7766 0.8837 0.0000
vt 0.7910 0.8318 0.0000
vt 0.7929 0.8322 0.0000
vt 0.7886 0.8436 0.0000
vt 0.7906 0.8429 0.0000
vt 0.7906 0.8598 0.0000
vt 0.7898 0.8598 0.0000
vt 0.2449 0.5831 0.0000
vt 0.2385 0.6059 0.0000
vt 0.2320 0.5870 0.0000
vt 0.2375 0.5581 0.0000
vt 0.2259 0.5633 0.0000
vt 0.2270 0.6097 0.0000
vt 0.2175 0.6021 0.0000
vt 0.2196 0.5847 0.0000
vt 0.2632 0.6554 0.0000
vt 0.2629 0.6276 0.0000
vt 0.2726 0.6373 0.0000
vt 0.2726 0.6684 0.0000
vt 0.2175 0.5545 0.0000
vt 0.2353 0.6803 0.0000
vt 0.2368 0.6545 0.0000
vt 0.2454 0.6617 0.0000
vt 0.2430 0.6869 0.0000
vt 0.2286 0.5381 0.0000
vt 0.2415 0.5342 0.0000
vt 0.2479 0.5568 0.0000
vt 0.2479 0.6035 0.0000
vt 0.2554 0.5757 0.0000
vt 0.2585 0.6039 0.0000
vt 0.2483 0.5892 0.0000
vt 0.2479 0.5621 0.0000
vt 0.2002 0.6684 0.0000
vt 0.1946 0.6849 0.0000
vt 0.1888 0.6612 0.0000
vt 0.1956 0.6387 0.0000
vt 0.1868 0.6344 0.0000
vt 0.2529 0.6390 0.0000
vt 0.2529 0.6701 0.0000
vt 0.2629 0.6805 0.0000
vt 0.2263 0.6623 0.0000
vt 0.2239 0.6875 0.0000
vt 0.2560 0.6108 0.0000
vt 0.2682 0.6097 0.0000
vt 0.2359 0.6097 0.0000
vt 0.2454 0.6155 0.0000
vt 0.2427 0.6323 0.0000
vt 0.2309 0.6327 0.0000
vt 0.2046 0.6207 0.0000
vt 0.2062 0.6466 0.0000
vt 0.1932 0.6135 0.0000
vt 0.2120 0.6688 0.0000
vt 0.2147 0.6855 0.0000
vt 0.2053 0.6913 0.0000
vt 0.2155 0.5625 0.0000
vt 0.2092 0.5393 0.0000
vt 0.2175 0.5438 0.0000
vt 0.2458 0.6255 0.0000
vt 0.2195 0.6398 0.0000
vt 0.2253 0.6161 0.0000
vt 0.2657 0.5594 0.0000
vt 0.2653 0.5871 0.0000
vt 0.2554 0.5446 0.0000
vt 0.2147 0.6393 0.0000
vt 0.1868 0.5881 0.0000
vt 0.1979 0.6056 0.0000
vt 0.1889 0.6135 0.0000
vt 0.2751 0.5775 0.0000
vt 0.2707 0.6050 0.0000
vt 0.2080 0.5861 0.0000
vt 0.2175 0.5895 0.0000
vt 0.2102 0.6115 0.0000
vt 0.2032 0.5566 0.0000
vt 0.1901 0.5578 0.0000
vt 0.1965 0.5794 0.0000
vt 0.2751 0.5464 0.0000
vt 0.1869 0.5415 0.0000
vt 0.1975 0.5342 0.0000
vt 0.2454 0.6527 0.0000
vt 0.2175 0.6667 0.0000
vt 0.2653 0.5342 0.0000
vt 0.7905 0.8688 0.0000
vt 0.7899 0.8689 0.0000
vt 0.7901 0.8679 0.0000
vt 0.7712 0.8701 0.0000
vt 0.7692 0.8706 0.0000
vt 0.7750 0.8318 0.0000
vt 0.7770 0.8324 0.0000
vt 0.7948 0.8710 0.0000
vt 0.7929 0.8710 0.0000
vt 0.7931 0.8649 0.0000
vt 0.7934 0.8649 0.0000
vt 0.7869 0.8429 0.0000
vt 0.7865 0.8427 0.0000
vt 0.7958 0.8449 0.0000
vt 0.7968 0.8436 0.0000
vt 0.7966 0.8519 0.0000
vt 0.7963 0.8519 0.0000
vt 0.7678 0.8790 0.0000
vt 0.7675 0.8790 0.0000
vt 0.7968 0.8521 0.0000
vt 0.7962 0.8522 0.0000
# 168 texture coords

g tree_2_
usemtl wire_087224198
f 1/1/1 2/2/1 3/3/1 
f 1/1/1 3/3/1 4/4/1 
f 1/1/1 4/4/1 5/5/1 
f 4/6/2 6/7/2 7/8/2 
f 4/6/2 7/8/2 8/9/2 
f 4/6/2 8/9/2 9/10/2 
f 9/10/2 10/11/2 11/12/2 
f 4/6/2 9/10/2 11/12/2 
f 5/13/2 4/6/2 11/12/2 
f 5/13/2 11/12/2 12/14/2 
f 6/15/3 13/16/3 14/17/3 
f 14/17/3 7/18/3 6/15/3 
f 8/19/4 7/18/4 14/17/4 
f 14/17/4 15/20/4 8/19/4 
f 16/21/5 15/22/5 14/23/5 
f 14/23/5 13/24/5 16/21/5 
f 1/25/6 5/26/6 12/27/6 
f 12/27/6 17/28/6 1/25/6 
f 3/29/7 2/30/7 18/31/7 
f 18/31/7 19/32/7 3/29/7 
f 16/33/1 13/34/1 6/35/1 
f 6/35/1 4/36/1 16/33/1 
f 2/37/8 16/38/8 20/39/8 
f 20/39/8 18/40/8 2/37/8 
f 4/41/9 3/42/9 19/43/9 
f 19/43/9 21/44/9 4/41/9 
f 16/45/10 4/46/10 21/47/10 
f 21/47/10 20/48/10 16/45/10 
f 20/49/11 21/50/11 19/51/11 
f 19/51/11 18/52/11 20/49/11 
f 12/53/12 11/26/12 22/54/12 
f 22/54/12 17/55/12 12/53/12 
f 9/56/13 8/19/13 15/20/13 
f 15/20/13 23/57/13 9/56/13 
f 22/58/14 11/59/14 24/60/14 
f 24/60/14 25/61/14 22/58/14 
f 11/12/15 10/11/15 26/62/15 
f 26/62/15 24/63/15 11/12/15 
f 27/64/16 22/65/16 25/66/16 
f 25/66/16 28/67/16 27/64/16 
f 27/68/17 10/69/17 9/56/17 
f 9/56/17 23/57/17 27/68/17 
f 10/70/18 27/71/18 28/72/18 
f 28/72/18 26/73/18 10/70/18 
f 29/74/19 30/75/19 31/76/19 
f 32/77/20 29/74/20 31/76/20 
f 32/77/21 31/76/21 33/78/21 
f 34/79/22 35/80/22 36/81/22 
f 31/76/23 34/79/23 36/81/23 
f 31/76/24 36/81/24 33/78/24 
f 37/82/25 38/83/25 39/84/25 
f 36/85/26 37/82/26 39/84/26 
f 36/81/27 39/86/27 33/78/27 
f 40/87/28 41/88/28 42/89/28 
f 39/90/29 40/87/29 42/89/29 
f 39/86/30 42/91/30 33/78/30 
f 43/92/31 44/93/31 32/77/31 
f 42/91/32 43/92/32 32/77/32 
f 42/91/33 32/77/33 33/78/33 
f 45/94/34 30/75/34 29/74/34 
f 46/95/35 45/96/35 29/97/35 
f 46/95/36 29/97/36 44/98/36 
f 47/99/37 35/100/37 34/101/37 
f 48/102/38 47/99/38 34/101/38 
f 48/102/39 34/101/39 30/103/39 
f 49/104/40 38/83/40 37/82/40 
f 50/105/41 49/104/41 37/82/41 
f 50/105/42 37/82/42 35/106/42 
f 51/107/43 41/88/43 40/87/43 
f 52/108/44 51/107/44 40/87/44 
f 52/109/45 40/110/45 38/83/45 
f 53/111/46 44/112/46 43/113/46 
f 54/114/47 53/111/47 43/113/47 
f 54/114/48 43/113/48 41/88/48 
f 55/115/49 56/116/49 48/102/49 
f 45/117/50 55/115/50 48/102/50 
f 45/117/51 48/102/51 30/103/51 
f 57/118/52 58/119/52 50/120/52 
f 47/99/53 57/118/53 50/120/53 
f 47/99/54 50/120/54 35/100/54 
f 59/121/55 60/122/55 52/123/55 
f 49/104/56 59/124/56 52/109/56 
f 49/104/57 52/109/57 38/83/57 
f 61/125/58 62/126/58 54/114/58 
f 51/107/59 61/125/59 54/114/59 
f 51/107/60 54/114/60 41/88/60 
f 63/127/61 64/128/61 46/95/61 
f 53/129/62 63/127/62 46/95/62 
f 53/129/63 46/95/63 44/98/63 
f 65/130/64 56/116/64 55/115/64 
f 66/131/65 65/132/65 55/133/65 
f 66/134/66 55/135/66 64/128/66 
f 67/136/67 58/137/67 57/138/67 
f 65/132/68 67/136/68 57/138/68 
f 65/130/69 57/118/69 56/116/69 
f 68/139/70 60/122/70 59/121/70 
f 67/136/71 68/139/71 59/121/71 
f 67/136/72 59/121/72 58/137/72 
f 69/140/73 70/141/73 66/131/73 
f 63/127/74 69/142/74 66/134/74 
f 63/127/75 66/134/75 64/128/75 
f 69/140/76 62/143/76 61/144/76 
f 68/139/77 69/140/77 61/144/77 
f 68/139/78 61/144/78 60/122/78 
f 44/93/79 29/74/79 32/77/79 
f 30/75/80 34/79/80 31/76/80 
f 35/106/81 37/82/81 36/85/81 
f 38/83/82 40/110/82 39/84/82 
f 41/88/83 43/113/83 42/89/83 
f 64/128/84 45/96/84 46/95/84 
f 56/116/85 47/99/85 48/102/85 
f 58/145/86 49/104/86 50/105/86 
f 60/146/87 51/107/87 52/108/87 
f 62/126/88 53/111/88 54/114/88 
f 64/128/89 55/135/89 45/96/89 
f 56/116/90 57/118/90 47/99/90 
f 58/145/91 59/124/91 49/104/91 
f 60/146/92 61/125/92 51/107/92 
f 62/147/93 63/127/93 53/129/93 
f 70/141/94 65/132/94 66/131/94 
f 70/141/95 67/136/95 65/132/95 
f 70/141/96 68/139/96 67/136/96 
f 62/147/97 69/142/97 63/127/97 
f 70/141/98 69/140/98 68/139/98 
f 25/23/99 24/148/99 26/149/99 
f 26/149/99 28/150/99 25/23/99 
f 23/151/100 2/152/100 1/153/100 
f 1/153/100 17/154/100 22/65/100 
f 23/151/100 1/153/100 22/65/100 
f 23/151/100 22/65/100 27/64/100 
f 15/155/101 16/156/101 71/157/101 
f 71/157/101 72/158/101 15/155/101 
f 23/57/102 15/20/102 72/159/102 
f 72/159/102 73/160/102 23/57/102 
f 16/161/103 2/162/103 74/163/103 
f 74/163/103 71/164/103 16/161/103 
f 2/152/104 23/151/104 73/165/104 
f 73/165/104 74/166/104 2/152/104 
f 74/163/105 73/167/105 72/168/105 
f 72/168/105 71/164/105 74/163/105 
# 140 faces

